<svg xmlns="http://www.w3.org/2000/svg" viewBox="0 0 1200 800" width="1200" height="800">
  <defs>
    <linearGradient id="neonGradient" x1="0%" y1="0%" x2="100%" y2="100%">
      <stop offset="0%" style="stop-color:#00ff9d;stop-opacity:0.2"/>
      <stop offset="100%" style="stop-color:#9d00ff;stop-opacity:0.2"/>
    </linearGradient>
    <filter id="glow">
      <feGaussianBlur stdDeviation="3" result="coloredBlur"/>
      <feMerge>
        <feMergeNode in="coloredBlur"/>
        <feMergeNode in="SourceGraphic"/>
      </feMerge>
    </filter>
  </defs>
  <!-- Background Grid -->
  <path d="M0 0h1200v800H0z" fill="url(#neonGradient)"/>
  <g stroke="#00ff9d" stroke-width="0.5" opacity="0.3">
    <path d="M0 100h1200M0 200h1200M0 300h1200M0 400h1200M0 500h1200M0 600h1200M0 700h1200"/>
    <path d="M100 0v800M200 0v800M300 0v800M400 0v800M500 0v800M600 0v800M700 0v800M800 0v800M900 0v800M1000 0v800M1100 0v800"/>
  </g>
  <!-- Campus Buildings -->
  <g fill="none" stroke="#9d00ff" stroke-width="2" filter="url(#glow)">
    <path d="M200 600h200v-300h-200z"/>
    <path d="M500 600h300v-400h-300z"/>
    <path d="M900 600h100v-200h-100z"/>
  </g>
  <!-- Students -->
  <g fill="#00ff9d" filter="url(#glow)">
    <circle cx="300" cy="500" r="10"/>
    <circle cx="600" cy="450" r="10"/>
    <circle cx="800" cy="550" r="10"/>
  </g>
  <!-- Books and Laptops -->
  <g stroke="#ff00dd" stroke-width="2" fill="none" filter="url(#glow)">
    <rect x="280" y="480" width="20" height="15"/>
    <rect x="580" y="430" width="25" height="15"/>
    <rect x="780" y="530" width="20" height="15"/>
  </g>
  <!-- Decorative Elements -->
  <g stroke="#00ffff" stroke-width="1" opacity="0.5">
    <circle cx="100" cy="100" r="50" fill="none"/>
    <circle cx="1100" cy="700" r="30" fill="none"/>
    <path d="M50 200l100 100M1050 300l100 -100" stroke-dasharray="5,5"/>
  </g>
</svg>